<?xml version="1.0" encoding="UTF-8" standalone="no"?>
<svg
   version="1.1"
   x="0px"
   y="0px"
   viewBox="0 0 100 100"
   enable-background="new 0 0 100 100"
   xml:space="preserve"
   id="svg10"
   sodipodi:docname="lyricsdark.svg"
   inkscape:version="1.2.2 (b0a8486541, 2022-12-01)"
   xmlns:inkscape="http://www.inkscape.org/namespaces/inkscape"
   xmlns:sodipodi="http://sodipodi.sourceforge.net/DTD/sodipodi-0.dtd"
   xmlns="http://www.w3.org/2000/svg"
   xmlns:svg="http://www.w3.org/2000/svg"><defs
     id="defs14" /><sodipodi:namedview
     id="namedview12"
     pagecolor="#ffffff"
     bordercolor="#000000"
     borderopacity="0.25"
     inkscape:showpageshadow="2"
     inkscape:pageopacity="0.0"
     inkscape:pagecheckerboard="0"
     inkscape:deskcolor="#d1d1d1"
     showgrid="false"
     inkscape:zoom="3.337544"
     inkscape:cx="49.137929"
     inkscape:cy="59.025439"
     inkscape:window-width="1446"
     inkscape:window-height="908"
     inkscape:window-x="0"
     inkscape:window-y="0"
     inkscape:window-maximized="1"
     inkscape:current-layer="svg10" /><g
     id="g8"
     transform="matrix(1.2144456,0,0,1.2199348,-10.72234,-10.996983)"><path
       d="M 87.885,18.592 C 73.526,-1.097 57.028,15.672 57.028,15.672 55.27,26.215 78.08,50.578 86.357,41.336 96.211,30.337 87.885,18.592 87.885,18.592 Z"
       id="path2"
       style="fill:#ffffff" /><path
       d="m 54.277,19.949 c -3.972,10.388 -0.426,17.417 5.549,23.648 7.207,7.517 19.199,2.017 19.199,2.017 C 58.479,40.878 54.277,19.949 54.277,19.949 Z"
       id="path4"
       style="fill:#ffffff" /><path
       d="M 51.221,31.407 8.829,79.07 c 0.96,9.891 10.617,11.916 10.617,11.916 L 69.248,48.687 C 55.576,48.517 51.221,31.407 51.221,31.407 Z"
       id="path6"
       style="fill:#ffffff" /></g></svg>
